<?xml version="1.0" encoding="UTF-8" standalone="no"?><svg xmlns="http://www.w3.org/2000/svg" xmlns:xlink="http://www.w3.org/1999/xlink" contentScriptType="application/ecmascript" contentStyleType="text/css" height="484px" preserveAspectRatio="none" style="width:354px;height:484px;background:#FFFFFF;" version="1.1" viewBox="0 0 354 484" width="354px" zoomAndPan="magnify"><defs/><g><rect fill="#FFFFFF" height="32.3105" style="stroke:#696969;stroke-width:1.0;" width="10" x="207" y="70.7988"/><rect fill="#FFFFFF" height="32.3105" style="stroke:#696969;stroke-width:1.0;" width="10" x="207" y="135.4199"/><rect fill="#FFFFFF" height="32.3105" style="stroke:#696969;stroke-width:1.0;" width="10" x="207" y="200.041"/><rect fill="#FFFFFF" height="56.6211" style="stroke:#696969;stroke-width:1.0;" width="10" x="207" y="264.6621"/><rect fill="#FFFFFF" height="29.3105" style="stroke:#696969;stroke-width:1.0;" width="10" x="207" y="401.8594"/><rect fill="#FFFFFF" height="90.8867" rx="3.5" ry="3.5" style="stroke:#696969;stroke-width:1.0;" width="254" x="10" y="282.6621"/><rect fill="#FFFFFF" height="44.2656" style="stroke:none;stroke-width:1.0;" width="254" x="10" y="329.2832"/><line style="stroke:#696969;stroke-width:1.0;stroke-dasharray:5.0,5.0;" x1="62" x2="62" y1="36.4883" y2="449.1699"/><line style="stroke:#696969;stroke-width:1.0;stroke-dasharray:5.0,5.0;" x1="212" x2="212" y1="36.4883" y2="449.1699"/><rect fill="#FF6347" height="30.4883" rx="3.5" ry="3.5" style="stroke:#FF6F61;stroke-width:1.5;" width="84" x="20" y="5"/><text fill="#FFFFFF" font-family="sans-serif" font-size="14" lengthAdjust="spacing" textLength="70" x="27" y="25.5352">自动柜员机</text><rect fill="#FF6347" height="30.4883" rx="3.5" ry="3.5" style="stroke:#FF6F61;stroke-width:1.5;" width="84" x="20" y="448.1699"/><text fill="#FFFFFF" font-family="sans-serif" font-size="14" lengthAdjust="spacing" textLength="70" x="27" y="468.7051">自动柜员机</text><rect fill="#FF6347" height="30.4883" rx="3.5" ry="3.5" style="stroke:#FF6F61;stroke-width:1.5;" width="84" x="170" y="5"/><text fill="#FFFFFF" font-family="sans-serif" font-size="14" lengthAdjust="spacing" textLength="70" x="177" y="25.5352">中央计算机</text><rect fill="#FF6347" height="30.4883" rx="3.5" ry="3.5" style="stroke:#FF6F61;stroke-width:1.5;" width="84" x="170" y="448.1699"/><text fill="#FFFFFF" font-family="sans-serif" font-size="14" lengthAdjust="spacing" textLength="70" x="177" y="468.7051">中央计算机</text><rect fill="#FFFFFF" height="32.3105" style="stroke:#696969;stroke-width:1.0;" width="10" x="207" y="70.7988"/><rect fill="#FFFFFF" height="32.3105" style="stroke:#696969;stroke-width:1.0;" width="10" x="207" y="135.4199"/><rect fill="#FFFFFF" height="32.3105" style="stroke:#696969;stroke-width:1.0;" width="10" x="207" y="200.041"/><rect fill="#FFFFFF" height="56.6211" style="stroke:#696969;stroke-width:1.0;" width="10" x="207" y="264.6621"/><rect fill="#FFFFFF" height="29.3105" style="stroke:#696969;stroke-width:1.0;" width="10" x="207" y="401.8594"/><polygon fill="#454645" points="195,66.7988,205,70.7988,195,74.7988,199,70.7988" style="stroke:#454645;stroke-width:1.0;"/><line style="stroke:#454645;stroke-width:1.0;" x1="62" x2="201" y1="70.7988" y2="70.7988"/><text fill="#000000" font-family="sans-serif" font-size="13" lengthAdjust="spacing" textLength="97" x="69" y="66.0566">HELO &lt;userid&gt;</text><path d="M222,54.9883 L222,72.9883 A3.5,3.5 0 0 0 225.5,76.4883 L291.5,76.4883 A3.5,3.5 0 0 0 295,72.9883 L295,61.4883 L285,51.4883 L225.5,51.4883 A3.5,3.5 0 0 0 222,54.9883 " fill="#7FFFD4" style="stroke:#7FFFD4;stroke-width:1.0;"/><path d="M285,51.4883 L285,59.7383 A1.75,1.75 0 0 0 286.75,61.4883 L295,61.4883 L285,51.4883 " fill="#7FFFD4" style="stroke:#7FFFD4;stroke-width:1.0;"/><text fill="#454645" font-family="sans-serif" font-size="13" lengthAdjust="spacing" textLength="52" x="228" y="69.0566">检查用户</text><polygon fill="#454645" points="73,99.1094,63,103.1094,73,107.1094,69,103.1094" style="stroke:#454645;stroke-width:1.0;"/><line style="stroke:#454645;stroke-width:1.0;stroke-dasharray:2.0,2.0;" x1="67" x2="211" y1="103.1094" y2="103.1094"/><text fill="#000000" font-family="sans-serif" font-size="13" lengthAdjust="spacing" textLength="51" x="79" y="98.3672">PASSWD</text><polygon fill="#454645" points="195,131.4199,205,135.4199,195,139.4199,199,135.4199" style="stroke:#454645;stroke-width:1.0;"/><line style="stroke:#454645;stroke-width:1.0;" x1="62" x2="201" y1="135.4199" y2="135.4199"/><text fill="#000000" font-family="sans-serif" font-size="13" lengthAdjust="spacing" textLength="101" x="69" y="130.6777">PASSWD &lt;pwd&gt;</text><path d="M222,119.6094 L222,137.6094 A3.5,3.5 0 0 0 225.5,141.1094 L291.5,141.1094 A3.5,3.5 0 0 0 295,137.6094 L295,126.1094 L285,116.1094 L225.5,116.1094 A3.5,3.5 0 0 0 222,119.6094 " fill="#7FFFD4" style="stroke:#7FFFD4;stroke-width:1.0;"/><path d="M285,116.1094 L285,124.3594 A1.75,1.75 0 0 0 286.75,126.1094 L295,126.1094 L285,116.1094 " fill="#7FFFD4" style="stroke:#7FFFD4;stroke-width:1.0;"/><text fill="#454645" font-family="sans-serif" font-size="13" lengthAdjust="spacing" textLength="52" x="228" y="133.6777">检查密码</text><polygon fill="#454645" points="73,163.7305,63,167.7305,73,171.7305,69,167.7305" style="stroke:#454645;stroke-width:1.0;"/><line style="stroke:#454645;stroke-width:1.0;stroke-dasharray:2.0,2.0;" x1="67" x2="211" y1="167.7305" y2="167.7305"/><text fill="#000000" font-family="sans-serif" font-size="13" lengthAdjust="spacing" textLength="18" x="79" y="162.9883">OK</text><polygon fill="#454645" points="195,196.041,205,200.041,195,204.041,199,200.041" style="stroke:#454645;stroke-width:1.0;"/><line style="stroke:#454645;stroke-width:1.0;" x1="62" x2="201" y1="200.041" y2="200.041"/><text fill="#000000" font-family="sans-serif" font-size="13" lengthAdjust="spacing" textLength="58" x="69" y="195.2988">BALANCE</text><path d="M222,184.2305 L222,202.2305 A3.5,3.5 0 0 0 225.5,205.7305 L291.5,205.7305 A3.5,3.5 0 0 0 295,202.2305 L295,190.7305 L285,180.7305 L225.5,180.7305 A3.5,3.5 0 0 0 222,184.2305 " fill="#7FFFD4" style="stroke:#7FFFD4;stroke-width:1.0;"/><path d="M285,180.7305 L285,188.9805 A1.75,1.75 0 0 0 286.75,190.7305 L295,190.7305 L285,180.7305 " fill="#7FFFD4" style="stroke:#7FFFD4;stroke-width:1.0;"/><text fill="#454645" font-family="sans-serif" font-size="13" lengthAdjust="spacing" textLength="52" x="228" y="198.2988">查询余额</text><polygon fill="#454645" points="73,228.3516,63,232.3516,73,236.3516,69,232.3516" style="stroke:#454645;stroke-width:1.0;"/><line style="stroke:#454645;stroke-width:1.0;stroke-dasharray:2.0,2.0;" x1="67" x2="211" y1="232.3516" y2="232.3516"/><text fill="#000000" font-family="sans-serif" font-size="13" lengthAdjust="spacing" textLength="105" x="79" y="227.6094">AMOUNT &lt;amt&gt;</text><polygon fill="#454645" points="195,260.6621,205,264.6621,195,268.6621,199,264.6621" style="stroke:#454645;stroke-width:1.0;"/><line style="stroke:#454645;stroke-width:1.0;" x1="62" x2="201" y1="264.6621" y2="264.6621"/><text fill="#000000" font-family="sans-serif" font-size="13" lengthAdjust="spacing" textLength="126" x="69" y="259.9199">WITHDRAWL &lt;amt&gt;</text><path d="M222,248.8516 L222,266.8516 A3.5,3.5 0 0 0 225.5,270.3516 L343.5,270.3516 A3.5,3.5 0 0 0 347,266.8516 L347,255.3516 L337,245.3516 L225.5,245.3516 A3.5,3.5 0 0 0 222,248.8516 " fill="#7FFFD4" style="stroke:#7FFFD4;stroke-width:1.0;"/><path d="M337,245.3516 L337,253.6016 A1.75,1.75 0 0 0 338.75,255.3516 L347,255.3516 L337,245.3516 " fill="#7FFFD4" style="stroke:#7FFFD4;stroke-width:1.0;"/><text fill="#454645" font-family="sans-serif" font-size="13" lengthAdjust="spacing" textLength="104" x="228" y="262.9199">检查余额是否足够</text><path d="M13.5,282.6621 L72,282.6621 L72,289.6621 L62,299.6621 L10,299.6621 L10,286.1621 " fill="#EEEEEE" style="stroke:#696969;stroke-width:1.0;"/><rect fill="none" height="90.8867" rx="3.5" ry="3.5" style="stroke:#696969;stroke-width:1.0;" width="254" x="10" y="282.6621"/><text fill="#454645" font-family="sans-serif" font-size="13" font-weight="bold" lengthAdjust="spacing" textLength="17" x="25" y="296.2305">alt</text><text fill="#696969" font-family="sans-serif" font-size="11" font-weight="bold" lengthAdjust="spacing" textLength="52" x="87" y="295.2969">[余额足够]</text><polygon fill="#454645" points="73,317.2832,63,321.2832,73,325.2832,69,321.2832" style="stroke:#454645;stroke-width:1.0;"/><line style="stroke:#454645;stroke-width:1.0;" x1="67" x2="211" y1="321.2832" y2="321.2832"/><text fill="#000000" font-family="sans-serif" font-size="13" lengthAdjust="spacing" textLength="18" x="79" y="316.541">OK</text><line style="stroke:#696969;stroke-width:1.0;stroke-dasharray:2.0,2.0;" x1="10" x2="264" y1="330.2832" y2="330.2832"/><text fill="#696969" font-family="sans-serif" font-size="11" font-weight="bold" lengthAdjust="spacing" textLength="52" x="15" y="340.918">[余额不足]</text><polygon fill="#454645" points="73,361.5488,63,365.5488,73,369.5488,69,365.5488" style="stroke:#454645;stroke-width:1.0;"/><line style="stroke:#454645;stroke-width:1.0;" x1="67" x2="211" y1="365.5488" y2="365.5488"/><text fill="#000000" font-family="sans-serif" font-size="13" lengthAdjust="spacing" textLength="23" x="79" y="360.8066">ERR</text><polygon fill="#454645" points="195,397.8594,205,401.8594,195,405.8594,199,401.8594" style="stroke:#454645;stroke-width:1.0;"/><line style="stroke:#454645;stroke-width:1.0;" x1="62" x2="201" y1="401.8594" y2="401.8594"/><text fill="#000000" font-family="sans-serif" font-size="13" lengthAdjust="spacing" textLength="22" x="69" y="397.1172">BYE</text><polygon fill="#454645" points="73,427.1699,63,431.1699,73,435.1699,69,431.1699" style="stroke:#454645;stroke-width:1.0;"/><line style="stroke:#454645;stroke-width:1.0;stroke-dasharray:2.0,2.0;" x1="67" x2="211" y1="431.1699" y2="431.1699"/><text fill="#000000" font-family="sans-serif" font-size="13" lengthAdjust="spacing" textLength="22" x="79" y="426.4277">BYE</text><!--MD5=[2bb90d876f13fd46e4625bb73a6e8c6c]
@startuml
!theme vibrant
participant 自动柜员机 as A
participant 中央计算机 as C
autoactivate on

A->C: HELO <userid>
note right: 检查用户
return PASSWD

A->C: PASSWD <pwd>
note right: 检查密码
return OK

A->C: BALANCE
note right: 查询余额
return AMOUNT <amt>

A->C: WITHDRAWL <amt>
note right: 检查余额是否足够
alt 余额足够
        C->A - -: OK
else 余额不足
        C->A - -: ERR
end

A->C: BYE
return BYE
@enduml

@startuml
skinparam BackgroundColor FFFFFF
skinparam shadowing false
skinparam RoundCorner 7
skinparam ArrowColor 454645
skinparam FontColor 454645
skinparam SequenceLifeLineBorderColor 696969
skinparam SequenceGroupHeaderFontColor 454645
skinparam SequenceGroupFontColor 696969
skinparam SequenceGroupBorderColor 696969
skinparam SequenceGroupBorderThickness 1

skinparam sequenceDivider {
    BorderColor 454645
    BorderThickness 1
    FontColor 454645
}

skinparam participant {
    BackgroundColor FF6347
    BorderColor FF6F61
    FontColor FFFFFF
}

skinparam database {
    BackgroundColor 00FFFF
    BorderColor 454645
    FontColor 454645
}

skinparam entity {
    BackgroundColor FFE552
    BorderColor 454645
    FontColor 454645
}

skinparam note {
    BackgroundColor 7FFFD4
    BorderColor 7FFFD4
    FontColor 454645
}

skinparam actor {
    BackgroundColor 454645
    BorderColor 454645
    FontColor 454645
}

skinparam boundary {
    BackgroundColor FFE552
    BorderColor 454645
    FontColor 454645
}

skinparam control {
    BackgroundColor FFE552
    BorderColor 454645
    FontColor 454645
}

skinparam collections {
    BackgroundColor FF6347
    BorderColor FFFFFF
    FontColor 454645
}
participant 自动柜员机 as A
participant 中央计算机 as C
autoactivate on

A->C: HELO <userid>
note right: 检查用户
return PASSWD

A->C: PASSWD <pwd>
note right: 检查密码
return OK

A->C: BALANCE
note right: 查询余额
return AMOUNT <amt>

A->C: WITHDRAWL <amt>
note right: 检查余额是否足够
alt 余额足够
        C->A - -: OK
else 余额不足
        C->A - -: ERR
end

A->C: BYE
return BYE
@enduml

PlantUML version 1.2021.9(Sun Jul 25 18:13:56 CST 2021)
(GPL source distribution)
Java Runtime: OpenJDK Runtime Environment
JVM: OpenJDK 64-Bit Server VM
Default Encoding: US-ASCII
Language: zh
Country: CN
--></g></svg>