<?xml version="1.0" encoding="UTF-8" standalone="no"?><svg xmlns="http://www.w3.org/2000/svg" xmlns:xlink="http://www.w3.org/1999/xlink" contentScriptType="application/ecmascript" contentStyleType="text/css" height="268px" preserveAspectRatio="none" style="width:614px;height:268px;background:#FFFFFF;" version="1.1" viewBox="0 0 614 268" width="614px" zoomAndPan="magnify"><defs/><g><line style="stroke:#696969;stroke-width:1.0;stroke-dasharray:5.0,5.0;" x1="242" x2="242" y1="36.4883" y2="233.041"/><line style="stroke:#696969;stroke-width:1.0;stroke-dasharray:5.0,5.0;" x1="434" x2="434" y1="36.4883" y2="233.041"/><rect fill="#FF6347" height="30.4883" rx="3.5" ry="3.5" style="stroke:#FF6F61;stroke-width:1.5;" width="52" x="216" y="5"/><text fill="#FFFFFF" font-family="sans-serif" font-size="14" lengthAdjust="spacing" textLength="38" x="223" y="25.5352">主机A</text><rect fill="#FF6347" height="30.4883" rx="3.5" ry="3.5" style="stroke:#FF6F61;stroke-width:1.5;" width="52" x="216" y="232.041"/><text fill="#FFFFFF" font-family="sans-serif" font-size="14" lengthAdjust="spacing" textLength="38" x="223" y="252.5762">主机A</text><rect fill="#FF6347" height="30.4883" rx="3.5" ry="3.5" style="stroke:#FF6F61;stroke-width:1.5;" width="50" x="409" y="5"/><text fill="#FFFFFF" font-family="sans-serif" font-size="14" lengthAdjust="spacing" textLength="36" x="416" y="25.5352">主机B</text><rect fill="#FF6347" height="30.4883" rx="3.5" ry="3.5" style="stroke:#FF6F61;stroke-width:1.5;" width="50" x="409" y="232.041"/><text fill="#FFFFFF" font-family="sans-serif" font-size="14" lengthAdjust="spacing" textLength="36" x="416" y="252.5762">主机B</text><polygon fill="#454645" points="422,66.7988,432,70.7988,422,74.7988,426,70.7988" style="stroke:#454645;stroke-width:1.0;"/><line style="stroke:#454645;stroke-width:1.0;" x1="242" x2="428" y1="70.7988" y2="70.7988"/><text fill="#000000" font-family="sans-serif" font-size="13" lengthAdjust="spacing" textLength="168" x="249" y="66.0566">Seq=42, ACK=79, data='C'</text><path d="M149,54.9883 L149,72.9883 A3.5,3.5 0 0 0 152.5,76.4883 L233.5,76.4883 A3.5,3.5 0 0 0 237,72.9883 L237,61.4883 L227,51.4883 L152.5,51.4883 A3.5,3.5 0 0 0 149,54.9883 " fill="#7FFFD4" style="stroke:#7FFFD4;stroke-width:1.0;"/><path d="M227,51.4883 L227,59.7383 A1.75,1.75 0 0 0 228.75,61.4883 L237,61.4883 L227,51.4883 " fill="#7FFFD4" style="stroke:#7FFFD4;stroke-width:1.0;"/><text fill="#454645" font-family="sans-serif" font-size="13" lengthAdjust="spacing" textLength="67" x="155" y="69.0566">用户键入'C'</text><polygon fill="#454645" points="253,102.1094,243,106.1094,253,110.1094,249,106.1094" style="stroke:#454645;stroke-width:1.0;"/><line style="stroke:#454645;stroke-width:1.0;" x1="247" x2="433" y1="106.1094" y2="106.1094"/><text fill="#000000" font-family="sans-serif" font-size="13" lengthAdjust="spacing" textLength="168" x="259" y="101.3672">Seq=79, ACK=43, data='C'</text><path d="M439,90.2988 L439,108.2988 A3.5,3.5 0 0 0 442.5,111.7988 L603.5,111.7988 A3.5,3.5 0 0 0 607,108.2988 L607,96.7988 L597,86.7988 L442.5,86.7988 A3.5,3.5 0 0 0 439,90.2988 " fill="#7FFFD4" style="stroke:#7FFFD4;stroke-width:1.0;"/><path d="M597,86.7988 L597,95.0488 A1.75,1.75 0 0 0 598.75,96.7988 L607,96.7988 L597,86.7988 " fill="#7FFFD4" style="stroke:#7FFFD4;stroke-width:1.0;"/><text fill="#454645" font-family="sans-serif" font-size="13" lengthAdjust="spacing" textLength="147" x="445" y="104.3672">主机确认收到'C'，回显'C'</text><polygon fill="#454645" points="422,137.4199,432,141.4199,422,145.4199,426,141.4199" style="stroke:#454645;stroke-width:1.0;"/><line style="stroke:#454645;stroke-width:1.0;" x1="242" x2="428" y1="141.4199" y2="141.4199"/><text fill="#000000" font-family="sans-serif" font-size="13" lengthAdjust="spacing" textLength="167" x="249" y="136.6777">Seq=43, ACK=80, data='R'</text><path d="M5,125.6094 L5,143.6094 A3.5,3.5 0 0 0 8.5,147.1094 L233.5,147.1094 A3.5,3.5 0 0 0 237,143.6094 L237,132.1094 L227,122.1094 L8.5,122.1094 A3.5,3.5 0 0 0 5,125.6094 " fill="#7FFFD4" style="stroke:#7FFFD4;stroke-width:1.0;"/><path d="M227,122.1094 L227,130.3594 A1.75,1.75 0 0 0 228.75,132.1094 L237,132.1094 L227,122.1094 " fill="#7FFFD4" style="stroke:#7FFFD4;stroke-width:1.0;"/><text fill="#454645" font-family="sans-serif" font-size="13" lengthAdjust="spacing" textLength="211" x="11" y="139.6777">主机确认收到回显的'C'，用户键入'R'</text><polygon fill="#454645" points="253,172.7305,243,176.7305,253,180.7305,249,176.7305" style="stroke:#454645;stroke-width:1.0;"/><line style="stroke:#454645;stroke-width:1.0;" x1="247" x2="433" y1="176.7305" y2="176.7305"/><text fill="#000000" font-family="sans-serif" font-size="13" lengthAdjust="spacing" textLength="167" x="259" y="171.9883">Seq=80, ACK=44, data='R'</text><path d="M439,160.9199 L439,178.9199 A3.5,3.5 0 0 0 442.5,182.4199 L601.5,182.4199 A3.5,3.5 0 0 0 605,178.9199 L605,167.4199 L595,157.4199 L442.5,157.4199 A3.5,3.5 0 0 0 439,160.9199 " fill="#7FFFD4" style="stroke:#7FFFD4;stroke-width:1.0;"/><path d="M595,157.4199 L595,165.6699 A1.75,1.75 0 0 0 596.75,167.4199 L605,167.4199 L595,157.4199 " fill="#7FFFD4" style="stroke:#7FFFD4;stroke-width:1.0;"/><text fill="#454645" font-family="sans-serif" font-size="13" lengthAdjust="spacing" textLength="145" x="445" y="174.9883">主机确认收到'R'，回显'R'</text><polygon fill="#454645" points="422,208.041,432,212.041,422,216.041,426,212.041" style="stroke:#454645;stroke-width:1.0;"/><line style="stroke:#454645;stroke-width:1.0;" x1="242" x2="428" y1="212.041" y2="212.041"/><text fill="#000000" font-family="sans-serif" font-size="13" lengthAdjust="spacing" textLength="108" x="249" y="207.2988">Seq=44, ACK=81</text><path d="M85,196.2305 L85,214.2305 A3.5,3.5 0 0 0 88.5,217.7305 L233.5,217.7305 A3.5,3.5 0 0 0 237,214.2305 L237,202.7305 L227,192.7305 L88.5,192.7305 A3.5,3.5 0 0 0 85,196.2305 " fill="#7FFFD4" style="stroke:#7FFFD4;stroke-width:1.0;"/><path d="M227,192.7305 L227,200.9805 A1.75,1.75 0 0 0 228.75,202.7305 L237,202.7305 L227,192.7305 " fill="#7FFFD4" style="stroke:#7FFFD4;stroke-width:1.0;"/><text fill="#454645" font-family="sans-serif" font-size="13" lengthAdjust="spacing" textLength="131" x="91" y="210.2988">主机确认收到回显的'R'</text><!--MD5=[72ae27f147836b72ea6acbe5d1b6d638]
@startuml
!theme vibrant
participant "主机A" as A
participant "主机B" as B

A->B: Seq=42, ACK=79, data='C'
note left: 用户键入'C'

B->A: Seq=79, ACK=43, data='C'
note right: 主机确认收到'C'，回显'C'

A->B: Seq=43, ACK=80, data='R'
note left: 主机确认收到回显的'C'，用户键入'R'

B->A: Seq=80, ACK=44, data='R'
note right: 主机确认收到'R'，回显'R'

A->B: Seq=44, ACK=81
note left: 主机确认收到回显的'R'
@enduml

@startuml
skinparam BackgroundColor FFFFFF
skinparam shadowing false
skinparam RoundCorner 7
skinparam ArrowColor 454645
skinparam FontColor 454645
skinparam SequenceLifeLineBorderColor 696969
skinparam SequenceGroupHeaderFontColor 454645
skinparam SequenceGroupFontColor 696969
skinparam SequenceGroupBorderColor 696969
skinparam SequenceGroupBorderThickness 1

skinparam sequenceDivider {
    BorderColor 454645
    BorderThickness 1
    FontColor 454645
}

skinparam participant {
    BackgroundColor FF6347
    BorderColor FF6F61
    FontColor FFFFFF
}

skinparam database {
    BackgroundColor 00FFFF
    BorderColor 454645
    FontColor 454645
}

skinparam entity {
    BackgroundColor FFE552
    BorderColor 454645
    FontColor 454645
}

skinparam note {
    BackgroundColor 7FFFD4
    BorderColor 7FFFD4
    FontColor 454645
}

skinparam actor {
    BackgroundColor 454645
    BorderColor 454645
    FontColor 454645
}

skinparam boundary {
    BackgroundColor FFE552
    BorderColor 454645
    FontColor 454645
}

skinparam control {
    BackgroundColor FFE552
    BorderColor 454645
    FontColor 454645
}

skinparam collections {
    BackgroundColor FF6347
    BorderColor FFFFFF
    FontColor 454645
}
participant "主机A" as A
participant "主机B" as B

A->B: Seq=42, ACK=79, data='C'
note left: 用户键入'C'

B->A: Seq=79, ACK=43, data='C'
note right: 主机确认收到'C'，回显'C'

A->B: Seq=43, ACK=80, data='R'
note left: 主机确认收到回显的'C'，用户键入'R'

B->A: Seq=80, ACK=44, data='R'
note right: 主机确认收到'R'，回显'R'

A->B: Seq=44, ACK=81
note left: 主机确认收到回显的'R'
@enduml

PlantUML version 1.2021.9(Sun Jul 25 18:13:56 CST 2021)
(GPL source distribution)
Java Runtime: OpenJDK Runtime Environment
JVM: OpenJDK 64-Bit Server VM
Default Encoding: US-ASCII
Language: zh
Country: CN
--></g></svg>