<?xml version="1.0" encoding="UTF-8" standalone="no"?><svg xmlns="http://www.w3.org/2000/svg" xmlns:xlink="http://www.w3.org/1999/xlink" contentScriptType="application/ecmascript" contentStyleType="text/css" height="728px" preserveAspectRatio="none" style="width:450px;height:728px;background:#FFFFFF;" version="1.1" viewBox="0 0 450 728" width="450px" zoomAndPan="magnify"><defs><filter height="300%" id="fuw3ek7wj58wa" width="300%" x="-1" y="-1"><feGaussianBlur result="blurOut" stdDeviation="2.0"/><feColorMatrix in="blurOut" result="blurOut2" type="matrix" values="0 0 0 0 0 0 0 0 0 0 0 0 0 0 0 0 0 0 .4 0"/><feOffset dx="4.0" dy="4.0" in="blurOut2" result="blurOut3"/><feBlend in="SourceGraphic" in2="blurOut3" mode="normal"/></filter></defs><g><rect fill="#FEFECE" filter="url(#fuw3ek7wj58wa)" height="36.4883" rx="12.5" ry="12.5" style="stroke:#A80036;stroke-width:1.5;" width="27" x="10" y="344.8076"/><text fill="#000000" font-family="sans-serif" font-size="14" lengthAdjust="spacing" textLength="7" x="20" y="368.3428">y</text><rect fill="#FEFECE" filter="url(#fuw3ek7wj58wa)" height="36.4883" rx="12.5" ry="12.5" style="stroke:#A80036;stroke-width:1.5;" width="31" x="87" y="118.8545"/><text fill="#000000" font-family="sans-serif" font-size="14" lengthAdjust="spacing" textLength="11" x="97" y="142.3896">w</text><rect fill="#FEFECE" filter="url(#fuw3ek7wj58wa)" height="36.4883" rx="12.5" ry="12.5" style="stroke:#A80036;stroke-width:1.5;" width="27" x="168" y="48.2441"/><text fill="#000000" font-family="sans-serif" font-size="14" lengthAdjust="spacing" textLength="7" x="178" y="71.7793">v</text><rect fill="#FEFECE" filter="url(#fuw3ek7wj58wa)" height="36.4883" rx="12.5" ry="12.5" style="stroke:#A80036;stroke-width:1.5;" width="29" x="245" y="20"/><text fill="#000000" font-family="sans-serif" font-size="14" lengthAdjust="spacing" textLength="9" x="255" y="43.5352">u</text><path d="M195,66.4883 L205,66.4883 C220,66.4883 220,38.2441 235,38.2441 L245,38.2441 " fill="none" style="stroke:#A80036;stroke-width:1.0;"/><rect fill="#FEFECE" filter="url(#fuw3ek7wj58wa)" height="36.4883" rx="12.5" ry="12.5" style="stroke:#A80036;stroke-width:1.5;" width="29" x="245" y="76.4883"/><text fill="#000000" font-family="sans-serif" font-size="14" lengthAdjust="spacing" textLength="9" x="255" y="100.0234">x</text><rect fill="#FEFECE" filter="url(#fuw3ek7wj58wa)" height="36.4883" rx="12.5" ry="12.5" style="stroke:#A80036;stroke-width:1.5;" width="29" x="324" y="76.4883"/><text fill="#000000" font-family="sans-serif" font-size="14" lengthAdjust="spacing" textLength="9" x="334" y="100.0234">u</text><path d="M274,94.7324 L284,94.7324 C299,94.7324 299,94.7324 314,94.7324 L324,94.7324 " fill="none" style="stroke:#A80036;stroke-width:1.0;"/><path d="M195,66.4883 L205,66.4883 C220,66.4883 220,94.7324 235,94.7324 L245,94.7324 " fill="none" style="stroke:#A80036;stroke-width:1.0;"/><path d="M118,137.0986 L128,137.0986 C143,137.0986 143,66.4883 158,66.4883 L168,66.4883 " fill="none" style="stroke:#A80036;stroke-width:1.0;"/><rect fill="#FEFECE" filter="url(#fuw3ek7wj58wa)" height="36.4883" rx="12.5" ry="12.5" style="stroke:#A80036;stroke-width:1.5;" width="29" x="168" y="161.2207"/><text fill="#000000" font-family="sans-serif" font-size="14" lengthAdjust="spacing" textLength="9" x="178" y="184.7559">x</text><rect fill="#FEFECE" filter="url(#fuw3ek7wj58wa)" height="36.4883" rx="12.5" ry="12.5" style="stroke:#A80036;stroke-width:1.5;" width="27" x="247" y="132.9766"/><text fill="#000000" font-family="sans-serif" font-size="14" lengthAdjust="spacing" textLength="7" x="257" y="156.5117">v</text><rect fill="#FEFECE" filter="url(#fuw3ek7wj58wa)" height="36.4883" rx="12.5" ry="12.5" style="stroke:#A80036;stroke-width:1.5;" width="29" x="324" y="132.9766"/><text fill="#000000" font-family="sans-serif" font-size="14" lengthAdjust="spacing" textLength="9" x="334" y="156.5117">u</text><path d="M274,151.2207 L284,151.2207 C299,151.2207 299,151.2207 314,151.2207 L324,151.2207 " fill="none" style="stroke:#A80036;stroke-width:1.0;"/><path d="M197,179.4648 L207,179.4648 C222,179.4648 222,151.2207 237,151.2207 L247,151.2207 " fill="none" style="stroke:#A80036;stroke-width:1.0;"/><rect fill="#FEFECE" filter="url(#fuw3ek7wj58wa)" height="36.4883" rx="12.5" ry="12.5" style="stroke:#A80036;stroke-width:1.5;" width="29" x="247" y="189.4648"/><text fill="#000000" font-family="sans-serif" font-size="14" lengthAdjust="spacing" textLength="9" x="257" y="213">u</text><path d="M197,179.4648 L207,179.4648 C222,179.4648 222,207.709 237,207.709 L247,207.709 " fill="none" style="stroke:#A80036;stroke-width:1.0;"/><path d="M118,137.0986 L128,137.0986 C143,137.0986 143,179.4648 158,179.4648 L168,179.4648 " fill="none" style="stroke:#A80036;stroke-width:1.0;"/><rect fill="#FEFECE" filter="url(#fuw3ek7wj58wa)" height="36.4883" rx="12.5" ry="12.5" style="stroke:#A80036;stroke-width:1.5;" width="29" x="168" y="217.709"/><text fill="#000000" font-family="sans-serif" font-size="14" lengthAdjust="spacing" textLength="9" x="178" y="241.2441">u</text><path d="M118,137.0986 L128,137.0986 C143,137.0986 143,235.9531 158,235.9531 L168,235.9531 " fill="none" style="stroke:#A80036;stroke-width:1.0;"/><path d="M37,363.0518 L47,363.0518 C62,363.0518 62,137.0986 77,137.0986 L87,137.0986 " fill="none" style="stroke:#A80036;stroke-width:1.0;"/><rect fill="#FEFECE" filter="url(#fuw3ek7wj58wa)" height="36.4883" rx="12.5" ry="12.5" style="stroke:#A80036;stroke-width:1.5;" width="29" x="87" y="344.8076"/><text fill="#000000" font-family="sans-serif" font-size="14" lengthAdjust="spacing" textLength="9" x="97" y="368.3428">x</text><rect fill="#FEFECE" filter="url(#fuw3ek7wj58wa)" height="36.4883" rx="12.5" ry="12.5" style="stroke:#A80036;stroke-width:1.5;" width="27" x="166" y="274.1973"/><text fill="#000000" font-family="sans-serif" font-size="14" lengthAdjust="spacing" textLength="7" x="176" y="297.7324">v</text><rect fill="#FEFECE" filter="url(#fuw3ek7wj58wa)" height="36.4883" rx="12.5" ry="12.5" style="stroke:#A80036;stroke-width:1.5;" width="29" x="243" y="274.1973"/><text fill="#000000" font-family="sans-serif" font-size="14" lengthAdjust="spacing" textLength="9" x="253" y="297.7324">u</text><path d="M193,292.4414 L203,292.4414 C218,292.4414 218,292.4414 233,292.4414 L243,292.4414 " fill="none" style="stroke:#A80036;stroke-width:1.0;"/><path d="M116,363.0518 L126,363.0518 C141,363.0518 141,292.4414 156,292.4414 L166,292.4414 " fill="none" style="stroke:#A80036;stroke-width:1.0;"/><rect fill="#FEFECE" filter="url(#fuw3ek7wj58wa)" height="36.4883" rx="12.5" ry="12.5" style="stroke:#A80036;stroke-width:1.5;" width="29" x="166" y="330.6855"/><text fill="#000000" font-family="sans-serif" font-size="14" lengthAdjust="spacing" textLength="9" x="176" y="354.2207">u</text><path d="M116,363.0518 L126,363.0518 C141,363.0518 141,348.9297 156,348.9297 L166,348.9297 " fill="none" style="stroke:#A80036;stroke-width:1.0;"/><rect fill="#FEFECE" filter="url(#fuw3ek7wj58wa)" height="36.4883" rx="12.5" ry="12.5" style="stroke:#A80036;stroke-width:1.5;" width="31" x="166" y="387.1738"/><text fill="#000000" font-family="sans-serif" font-size="14" lengthAdjust="spacing" textLength="11" x="176" y="410.709">w</text><rect fill="#FEFECE" filter="url(#fuw3ek7wj58wa)" height="36.4883" rx="12.5" ry="12.5" style="stroke:#A80036;stroke-width:1.5;" width="27" x="247" y="358.9297"/><text fill="#000000" font-family="sans-serif" font-size="14" lengthAdjust="spacing" textLength="7" x="257" y="382.4648">v</text><rect fill="#FEFECE" filter="url(#fuw3ek7wj58wa)" height="36.4883" rx="12.5" ry="12.5" style="stroke:#A80036;stroke-width:1.5;" width="29" x="324" y="358.9297"/><text fill="#000000" font-family="sans-serif" font-size="14" lengthAdjust="spacing" textLength="9" x="334" y="382.4648">u</text><path d="M274,377.1738 L284,377.1738 C299,377.1738 299,377.1738 314,377.1738 L324,377.1738 " fill="none" style="stroke:#A80036;stroke-width:1.0;"/><path d="M197,405.418 L207,405.418 C222,405.418 222,377.1738 237,377.1738 L247,377.1738 " fill="none" style="stroke:#A80036;stroke-width:1.0;"/><rect fill="#FEFECE" filter="url(#fuw3ek7wj58wa)" height="36.4883" rx="12.5" ry="12.5" style="stroke:#A80036;stroke-width:1.5;" width="29" x="247" y="415.418"/><text fill="#000000" font-family="sans-serif" font-size="14" lengthAdjust="spacing" textLength="9" x="257" y="438.9531">u</text><path d="M197,405.418 L207,405.418 C222,405.418 222,433.6621 237,433.6621 L247,433.6621 " fill="none" style="stroke:#A80036;stroke-width:1.0;"/><path d="M116,363.0518 L126,363.0518 C141,363.0518 141,405.418 156,405.418 L166,405.418 " fill="none" style="stroke:#A80036;stroke-width:1.0;"/><path d="M37,363.0518 L47,363.0518 C62,363.0518 62,363.0518 77,363.0518 L87,363.0518 " fill="none" style="stroke:#A80036;stroke-width:1.0;"/><rect fill="#FEFECE" filter="url(#fuw3ek7wj58wa)" height="36.4883" rx="12.5" ry="12.5" style="stroke:#A80036;stroke-width:1.5;" width="28" x="87" y="570.7607"/><text fill="#000000" font-family="sans-serif" font-size="14" lengthAdjust="spacing" textLength="8" x="97" y="594.2959">z</text><rect fill="#FEFECE" filter="url(#fuw3ek7wj58wa)" height="36.4883" rx="12.5" ry="12.5" style="stroke:#A80036;stroke-width:1.5;" width="31" x="165" y="570.7607"/><text fill="#000000" font-family="sans-serif" font-size="14" lengthAdjust="spacing" textLength="11" x="175" y="594.2959">w</text><rect fill="#FEFECE" filter="url(#fuw3ek7wj58wa)" height="36.4883" rx="12.5" ry="12.5" style="stroke:#A80036;stroke-width:1.5;" width="27" x="246" y="500.1504"/><text fill="#000000" font-family="sans-serif" font-size="14" lengthAdjust="spacing" textLength="7" x="256" y="523.6855">v</text><rect fill="#FEFECE" filter="url(#fuw3ek7wj58wa)" height="36.4883" rx="12.5" ry="12.5" style="stroke:#A80036;stroke-width:1.5;" width="29" x="323" y="471.9063"/><text fill="#000000" font-family="sans-serif" font-size="14" lengthAdjust="spacing" textLength="9" x="333" y="495.4414">u</text><path d="M273,518.3945 L283,518.3945 C298,518.3945 298,490.1504 313,490.1504 L323,490.1504 " fill="none" style="stroke:#A80036;stroke-width:1.0;"/><rect fill="#FEFECE" filter="url(#fuw3ek7wj58wa)" height="36.4883" rx="12.5" ry="12.5" style="stroke:#A80036;stroke-width:1.5;" width="29" x="323" y="528.3945"/><text fill="#000000" font-family="sans-serif" font-size="14" lengthAdjust="spacing" textLength="9" x="333" y="551.9297">x</text><rect fill="#FEFECE" filter="url(#fuw3ek7wj58wa)" height="36.4883" rx="12.5" ry="12.5" style="stroke:#A80036;stroke-width:1.5;" width="29" x="402" y="528.3945"/><text fill="#000000" font-family="sans-serif" font-size="14" lengthAdjust="spacing" textLength="9" x="412" y="551.9297">u</text><path d="M352,546.6387 L362,546.6387 C377,546.6387 377,546.6387 392,546.6387 L402,546.6387 " fill="none" style="stroke:#A80036;stroke-width:1.0;"/><path d="M273,518.3945 L283,518.3945 C298,518.3945 298,546.6387 313,546.6387 L323,546.6387 " fill="none" style="stroke:#A80036;stroke-width:1.0;"/><path d="M196,589.0049 L206,589.0049 C221,589.0049 221,518.3945 236,518.3945 L246,518.3945 " fill="none" style="stroke:#A80036;stroke-width:1.0;"/><rect fill="#FEFECE" filter="url(#fuw3ek7wj58wa)" height="36.4883" rx="12.5" ry="12.5" style="stroke:#A80036;stroke-width:1.5;" width="29" x="246" y="613.127"/><text fill="#000000" font-family="sans-serif" font-size="14" lengthAdjust="spacing" textLength="9" x="256" y="636.6621">x</text><rect fill="#FEFECE" filter="url(#fuw3ek7wj58wa)" height="36.4883" rx="12.5" ry="12.5" style="stroke:#A80036;stroke-width:1.5;" width="29" x="325" y="584.8828"/><text fill="#000000" font-family="sans-serif" font-size="14" lengthAdjust="spacing" textLength="9" x="335" y="608.418">u</text><path d="M275,631.3711 L285,631.3711 C300,631.3711 300,603.127 315,603.127 L325,603.127 " fill="none" style="stroke:#A80036;stroke-width:1.0;"/><rect fill="#FEFECE" filter="url(#fuw3ek7wj58wa)" height="36.4883" rx="12.5" ry="12.5" style="stroke:#A80036;stroke-width:1.5;" width="27" x="325" y="641.3711"/><text fill="#000000" font-family="sans-serif" font-size="14" lengthAdjust="spacing" textLength="7" x="335" y="664.9063">v</text><rect fill="#FEFECE" filter="url(#fuw3ek7wj58wa)" height="36.4883" rx="12.5" ry="12.5" style="stroke:#A80036;stroke-width:1.5;" width="29" x="402" y="641.3711"/><text fill="#000000" font-family="sans-serif" font-size="14" lengthAdjust="spacing" textLength="9" x="412" y="664.9063">u</text><path d="M352,659.6152 L362,659.6152 C377,659.6152 377,659.6152 392,659.6152 L402,659.6152 " fill="none" style="stroke:#A80036;stroke-width:1.0;"/><path d="M275,631.3711 L285,631.3711 C300,631.3711 300,659.6152 315,659.6152 L325,659.6152 " fill="none" style="stroke:#A80036;stroke-width:1.0;"/><path d="M196,589.0049 L206,589.0049 C221,589.0049 221,631.3711 236,631.3711 L246,631.3711 " fill="none" style="stroke:#A80036;stroke-width:1.0;"/><rect fill="#FEFECE" filter="url(#fuw3ek7wj58wa)" height="36.4883" rx="12.5" ry="12.5" style="stroke:#A80036;stroke-width:1.5;" width="29" x="246" y="669.6152"/><text fill="#000000" font-family="sans-serif" font-size="14" lengthAdjust="spacing" textLength="9" x="256" y="693.1504">u</text><path d="M196,589.0049 L206,589.0049 C221,589.0049 221,687.8594 236,687.8594 L246,687.8594 " fill="none" style="stroke:#A80036;stroke-width:1.0;"/><path d="M115,589.0049 L125,589.0049 C140,589.0049 140,589.0049 155,589.0049 L165,589.0049 " fill="none" style="stroke:#A80036;stroke-width:1.0;"/><path d="M37,363.0518 L47,363.0518 C62,363.0518 62,589.0049 77,589.0049 L87,589.0049 " fill="none" style="stroke:#A80036;stroke-width:1.0;"/><!--MD5=[105531280db8edc156604074e5fb1ce4]
@startmindmap
* y
** w
*** v
**** u
**** x
***** u
*** x
**** v
***** u
**** u
*** u
** x
*** v
**** u
*** u
*** w
**** v
***** u
**** u
** z
*** w
**** v
***** u
***** x
****** u
**** x
***** u
***** v
****** u
**** u
@endmindmap

PlantUML version 1.2021.12(Wed Oct 06 00:01:58 CST 2021)
(GPL source distribution)
Java Runtime: OpenJDK Runtime Environment
JVM: OpenJDK 64-Bit Server VM
Default Encoding: US-ASCII
Language: zh
Country: CN
--></g></svg>